<svg viewBox="0 0 760 300" xmlns="http://www.w3.org/2000/svg">
  
  <!-- LETTRE O - Style line art -->
  <g id="onja-O" fill="none" stroke="#A72B32" stroke-width="2.6" stroke-linecap="round" stroke-linejoin="round">
    <line x1="95.0" y1="68.0" x2="143.1983906879828" y2="83.6606064612543"/>
    <line x1="106.1246117974981" y1="115.76196541337447" x2="124.1246117974981" y2="128.83973091747097"/>
    <line x1="95.0" y1="68.0" x2="106.1246117974981" y2="115.76196541337447"/>
    <line x1="95.0" y1="68.0" x2="83.87538820250188" y2="115.76196541337447"/>
    <line x1="143.1983906879828" y1="83.6606064612543" x2="172.9866343362026" y2="124.66060646125432"/>
    <line x1="124.1246117974981" y1="128.83973091747097" x2="131.0" y2="150.0"/>
    <line x1="143.1983906879828" y1="83.6606064612543" x2="124.1246117974981" y2="128.83973091747097"/>
    <line x1="143.1983906879828" y1="83.6606064612543" x2="106.1246117974981" y2="115.76196541337447"/>
    <line x1="172.9866343362026" y1="124.66060646125432" x2="172.9866343362026" y2="175.3393935387457"/>
    <line x1="131.0" y1="150.0" x2="124.1246117974981" y2="171.16026908252903"/>
    <line x1="172.9866343362026" y1="124.66060646125432" x2="131.0" y2="150.0"/>
    <line x1="172.9866343362026" y1="124.66060646125432" x2="124.1246117974981" y2="128.83973091747097"/>
    <line x1="172.9866343362026" y1="175.3393935387457" x2="143.1983906879828" y2="216.3393935387457"/>
    <line x1="124.1246117974981" y1="171.16026908252903" x2="106.1246117974981" y2="184.23803458662553"/>
    <line x1="172.9866343362026" y1="175.3393935387457" x2="124.1246117974981" y2="171.16026908252903"/>
    <line x1="172.9866343362026" y1="175.3393935387457" x2="131.0" y2="150.0"/>
    <line x1="143.1983906879828" y1="216.3393935387457" x2="95.0" y2="232.0"/>
    <line x1="106.1246117974981" y1="184.23803458662553" x2="83.8753882025019" y2="184.23803458662553"/>
    <line x1="143.1983906879828" y1="216.3393935387457" x2="106.1246117974981" y2="184.23803458662553"/>
    <line x1="143.1983906879828" y1="216.3393935387457" x2="124.1246117974981" y2="171.16026908252903"/>
    <line x1="95.0" y1="232.0" x2="46.80160931201721" y2="216.3393935387457"/>
    <line x1="83.8753882025019" y1="184.23803458662553" x2="65.8753882025019" y2="171.16026908252903"/>
    <line x1="95.0" y1="232.0" x2="83.8753882025019" y2="184.23803458662553"/>
    <line x1="95.0" y1="232.0" x2="106.1246117974981" y2="184.23803458662553"/>
    <line x1="46.80160931201721" y1="216.3393935387457" x2="17.013365663797416" y2="175.3393935387457"/>
    <line x1="65.8753882025019" y1="171.16026908252903" x2="59.0" y2="150.0"/>
    <line x1="46.80160931201721" y1="216.3393935387457" x2="65.8753882025019" y2="171.16026908252903"/>
    <line x1="46.80160931201721" y1="216.3393935387457" x2="83.8753882025019" y2="184.23803458662553"/>
    <line x1="17.013365663797416" y1="175.3393935387457" x2="17.0133656637974" y2="124.66060646125432"/>
    <line x1="59.0" y1="150.0" x2="65.87538820250188" y2="128.83973091747097"/>
    <line x1="17.013365663797416" y1="175.3393935387457" x2="59.0" y2="150.0"/>
    <line x1="17.013365663797416" y1="175.3393935387457" x2="65.8753882025019" y2="171.16026908252903"/>
    <line x1="17.0133656637974" y1="124.66060646125432" x2="46.80160931201719" y2="83.66060646125432"/>
    <line x1="65.87538820250188" y1="128.83973091747097" x2="83.87538820250188" y2="115.76196541337447"/>
    <line x1="17.0133656637974" y1="124.66060646125432" x2="65.87538820250188" y2="128.83973091747097"/>
    <line x1="17.0133656637974" y1="124.66060646125432" x2="59.0" y2="150.0"/>
    <line x1="46.80160931201719" y1="83.66060646125432" x2="95.0" y2="68.0"/>
    <line x1="83.87538820250188" y1="115.76196541337447" x2="106.1246117974981" y2="115.76196541337447"/>
    <line x1="46.80160931201719" y1="83.66060646125432" x2="83.87538820250188" y2="115.76196541337447"/>
    <line x1="46.80160931201719" y1="83.66060646125432" x2="65.87538820250188" y2="128.83973091747097"/>
  </g>
  
  <!-- LETTRE N - Décallée de 20px après le O (O se termine à 177, donc N commence à 197) -->
  <g id="onja-N" fill="none" stroke="#E7E7EA" stroke-width="2.2" stroke-linecap="round" stroke-linejoin="round">
    <line x1="197.0" y1="260.0" x2="197.0" y2="216.0"/>
    <line x1="181.0" y1="260.0" x2="181.0" y2="216.0"/>
    <line x1="197.0" y1="216.0" x2="197.0" y2="172.0"/>
    <line x1="181.0" y1="216.0" x2="181.0" y2="172.0"/>
    <line x1="197.0" y1="172.0" x2="197.0" y2="128.0"/>
    <line x1="181.0" y1="172.0" x2="181.0" y2="128.0"/>
    <line x1="197.0" y1="128.0" x2="197.0" y2="84.0"/>
    <line x1="181.0" y1="128.0" x2="181.0" y2="84.0"/>
    <line x1="197.0" y1="84.0" x2="197.0" y2="40.0"/>
    <line x1="181.0" y1="84.0" x2="181.0" y2="40.0"/>
    <line x1="197.0" y1="260.0" x2="181.0" y2="260.0"/>
    <line x1="197.0" y1="216.0" x2="181.0" y2="216.0"/>
    <line x1="197.0" y1="172.0" x2="181.0" y2="172.0"/>
    <line x1="197.0" y1="128.0" x2="181.0" y2="128.0"/>
    <line x1="197.0" y1="84.0" x2="181.0" y2="84.0"/>
    <line x1="197.0" y1="40.0" x2="181.0" y2="40.0"/>
    <line x1="197.0" y1="260.0" x2="181.0" y2="216.0"/>
    <line x1="197.0" y1="216.0" x2="181.0" y2="172.0"/>
    <line x1="197.0" y1="172.0" x2="181.0" y2="128.0"/>
    <line x1="197.0" y1="128.0" x2="181.0" y2="84.0"/>
    <line x1="197.0" y1="84.0" x2="181.0" y2="40.0"/>
    <line x1="182.74" y1="43.13" x2="201.07" y2="79.8"/>
    <line x1="195.26" y1="36.87" x2="213.59" y2="73.54"/>
    <line x1="201.07" y1="79.8" x2="219.41" y2="116.46"/>
    <line x1="213.59" y1="73.54" x2="231.93" y2="110.2"/>
    <line x1="219.41" y1="116.46" x2="237.74" y2="153.13"/>
    <line x1="231.93" y1="110.2" x2="250.26" y2="146.87"/>
    <line x1="237.74" y1="153.13" x2="256.07" y2="189.8"/>
    <line x1="250.26" y1="146.87" x2="268.59" y2="183.54"/>
    <line x1="256.07" y1="189.8" x2="274.41" y2="226.46"/>
    <line x1="268.59" y1="183.54" x2="286.93" y2="220.2"/>
    <line x1="274.41" y1="226.46" x2="292.74" y2="263.13"/>
    <line x1="286.93" y1="220.2" x2="305.26" y2="256.87"/>
    <line x1="182.74" y1="43.13" x2="195.26" y2="36.87"/>
    <line x1="201.07" y1="79.8" x2="213.59" y2="73.54"/>
    <line x1="219.41" y1="116.46" x2="231.93" y2="110.2"/>
    <line x1="237.74" y1="153.13" x2="250.26" y2="146.87"/>
    <line x1="256.07" y1="189.8" x2="268.59" y2="183.54"/>
    <line x1="274.41" y1="226.46" x2="286.93" y2="220.2"/>
    <line x1="292.74" y1="263.13" x2="305.26" y2="256.87"/>
    <line x1="182.74" y1="43.13" x2="213.59" y2="73.54"/>
    <line x1="201.07" y1="79.8" x2="231.93" y2="110.2"/>
    <line x1="219.41" y1="116.46" x2="250.26" y2="146.87"/>
    <line x1="237.74" y1="153.13" x2="268.59" y2="183.54"/>
    <line x1="256.07" y1="189.8" x2="286.93" y2="220.2"/>
    <line x1="274.41" y1="226.46" x2="305.26" y2="256.87"/>
    <line x1="307.0" y1="260.0" x2="307.0" y2="216.0"/>
    <line x1="291.0" y1="260.0" x2="291.0" y2="216.0"/>
    <line x1="307.0" y1="216.0" x2="307.0" y2="172.0"/>
    <line x1="291.0" y1="216.0" x2="291.0" y2="172.0"/>
    <line x1="307.0" y1="172.0" x2="307.0" y2="128.0"/>
    <line x1="291.0" y1="172.0" x2="291.0" y2="128.0"/>
    <line x1="307.0" y1="128.0" x2="307.0" y2="84.0"/>
    <line x1="291.0" y1="128.0" x2="291.0" y2="84.0"/>
    <line x1="307.0" y1="84.0" x2="307.0" y2="40.0"/>
    <line x1="291.0" y1="84.0" x2="291.0" y2="40.0"/>
    <line x1="307.0" y1="260.0" x2="291.0" y2="260.0"/>
    <line x1="307.0" y1="216.0" x2="291.0" y2="216.0"/>
    <line x1="307.0" y1="172.0" x2="291.0" y2="172.0"/>
    <line x1="307.0" y1="128.0" x2="291.0" y2="128.0"/>
    <line x1="307.0" y1="84.0" x2="291.0" y2="84.0"/>
    <line x1="307.0" y1="40.0" x2="291.0" y2="40.0"/>
    <line x1="307.0" y1="260.0" x2="291.0" y2="216.0"/>
    <line x1="307.0" y1="216.0" x2="291.0" y2="172.0"/>
    <line x1="307.0" y1="172.0" x2="291.0" y2="128.0"/>
    <line x1="307.0" y1="128.0" x2="291.0" y2="84.0"/>
    <line x1="307.0" y1="84.0" x2="291.0" y2="40.0"/>
  </g>
  
  <!-- LETTRE J - Décallée de 20px après le N (N se termine à 307, donc J commence à 327) -->
  <g id="onja-J">
    <g fill="none" stroke="#E7E7EA" stroke-width="2.2" stroke-linecap="round" stroke-linejoin="round">
      <line x1="327.0" y1="40.0" x2="327.0" y2="73.75"/>
      <line x1="343.0" y1="40.0" x2="343.0" y2="73.75"/>
      <line x1="327.0" y1="73.75" x2="327.0" y2="107.5"/>
      <line x1="343.0" y1="73.75" x2="343.0" y2="107.5"/>
      <line x1="327.0" y1="107.5" x2="327.0" y2="141.25"/>
      <line x1="343.0" y1="107.5" x2="343.0" y2="141.25"/>
      <line x1="327.0" y1="141.25" x2="327.0" y2="175.0"/>
      <line x1="343.0" y1="141.25" x2="343.0" y2="175.0"/>
      <line x1="327.0" y1="40.0" x2="343.0" y2="40.0"/>
      <line x1="327.0" y1="73.75" x2="343.0" y2="73.75"/>
      <line x1="327.0" y1="107.5" x2="343.0" y2="107.5"/>
      <line x1="327.0" y1="141.25" x2="343.0" y2="141.25"/>
      <line x1="327.0" y1="175.0" x2="343.0" y2="175.0"/>
      <line x1="327.0" y1="40.0" x2="343.0" y2="73.75"/>
      <line x1="327.0" y1="73.75" x2="343.0" y2="107.5"/>
      <line x1="327.0" y1="107.5" x2="343.0" y2="141.25"/>
      <line x1="327.0" y1="141.25" x2="343.0" y2="175.0"/>
    </g>
    <g fill="#C7C7CC" stroke="#8E8E93" stroke-width="1" stroke-linejoin="round">
      <polygon points="327,175 343,175 347,205 315,222"/>
      <polygon points="315,222 347,205 333,236 291,232" fill="#D8D8DC"/>
      <polygon points="291,232 333,236 299,248 260,222" fill="#B9B9BF"/>
    </g>
    <g fill="none" stroke="#8E8E93" stroke-width="1.4" stroke-linecap="round">
      <line x1="327" y1="175" x2="315" y2="222"/>
      <line x1="315" y1="222" x2="299" y2="248"/>
      <line x1="343" y1="175" x2="347" y2="205"/>
      <line x1="347" y1="205" x2="333" y2="236"/>
      <line x1="333" y1="236" x2="299" y2="248"/>
      <line x1="347" y1="205" x2="315" y2="222"/>
      <line x1="333" y1="236" x2="291" y2="232"/>
    </g>
  </g>
  
  <!-- LETTRE A - Décallée de 20px après le J (J se termine à environ 350, donc A commence à 370) -->
  <g id="onja-A">
    <polygon points="622,20 522,262 608,262" fill="#8E1F27"/>
    <polygon points="622,20 636,262 724,262" fill="#E63946"/>
  </g>
  
</svg>